<svg xmlns="http://www.w3.org/2000/svg" width="967" height="1224" fill="#000" fill-opacity="1" stroke="#000" stroke-dasharray="none" stroke-dashoffset="0" stroke-linecap="square" stroke-linejoin="miter" stroke-miterlimit="10" stroke-opacity="1" stroke-width="1" color-interpolation="auto" color-rendering="auto" font-family="'Dialog'" font-size="12" font-style="normal" font-weight="normal" image-rendering="auto" shape-rendering="auto" text-rendering="auto"><g><defs id="defs1"><clipPath id="clipPath1" clipPathUnits="userSpaceOnUse"><path d="M0 0 L967 0 L967 1224 L0 1224 L0 0 Z"/></clipPath><clipPath id="clipPath2" clipPathUnits="userSpaceOnUse"><path d="M358 0 L1325 0 L1325 1224 L358 1224 L358 0 Z"/></clipPath><clipPath id="clipPath3" clipPathUnits="userSpaceOnUse"><path d="M591 283 L591 388 L776 388 L776 283 Z"/></clipPath><clipPath id="clipPath4" clipPathUnits="userSpaceOnUse"><path d="M591 478 L591 583 L776 583 L776 478 Z"/></clipPath><clipPath id="clipPath5" clipPathUnits="userSpaceOnUse"><path d="M591 704 L591 809 L776 809 L776 704 Z"/></clipPath><clipPath id="clipPath6" clipPathUnits="userSpaceOnUse"><path d="M912 478 L912 583 L1097 583 L1097 478 Z"/></clipPath><clipPath id="clipPath7" clipPathUnits="userSpaceOnUse"><path d="M591 950 L591 1055 L776 1055 L776 950 Z"/></clipPath><clipPath id="clipPath8" clipPathUnits="userSpaceOnUse"><path d="M900 704 L900 809 L1085 809 L1085 704 Z"/></clipPath><clipPath id="clipPath9" clipPathUnits="userSpaceOnUse"><path d="M617 1165 L617 1203 L750 1203 L750 1165 Z"/></clipPath><clipPath id="clipPath10" clipPathUnits="userSpaceOnUse"><path d="M900 196 L900 246 L1097 246 L1097 196 Z"/></clipPath></defs><g fill="#fff" stroke="#fff" shape-rendering="geometricPrecision" text-rendering="geometricPrecision" transform="translate(-358,0)"><rect width="967" height="1224" x="358" y="0" stroke="none" clip-path="url(#clipPath2)"/></g><g fill="#FC0" stroke="#FC0" shape-rendering="geometricPrecision" text-rendering="geometricPrecision" transform="matrix(1,0,0,1,-358,0)"><rect width="183" height="103" x="592" y="284" stroke="none" clip-path="url(#clipPath2)"/><rect width="1" height="105" x="591" y="283" fill="#ff0" stroke="none" clip-path="url(#clipPath2)"/><rect width="183" height="1" x="592" y="283" fill="#ff0" stroke="none" clip-path="url(#clipPath2)"/><rect width="184" height="1" x="592" y="387" fill="#B28E00" stroke="none" clip-path="url(#clipPath2)"/><rect width="1" height="104" x="775" y="283" fill="#B28E00" stroke="none" clip-path="url(#clipPath2)"/></g><g stroke-linecap="butt" stroke-miterlimit="1.45" font-family="sans-serif" font-size="13" font-weight="bold" shape-rendering="geometricPrecision" text-rendering="geometricPrecision"><text x="631.395" y="300.567" stroke="none" clip-path="url(#clipPath3)" transform="matrix(1,0,0,1,-358,0)" xml:space="preserve">RCaller(@3a1)</text></g><g shape-rendering="geometricPrecision" text-rendering="geometricPrecision" transform="matrix(1,0,0,1,-358,0)"><line x1="592" x2="775" y1="308" y2="308" fill="none" clip-path="url(#clipPath3)"/><text x="596" y="324.772" stroke="none" stroke-linecap="butt" stroke-miterlimit="1.45" clip-path="url(#clipPath3)" font-family="sans-serif" xml:space="preserve">depth = 4</text><text x="596" y="338.74" stroke="none" stroke-linecap="butt" stroke-miterlimit="1.45" clip-path="url(#clipPath3)" font-family="sans-serif" xml:space="preserve">isPromise = false</text><text x="596" y="352.709" stroke="none" stroke-linecap="butt" stroke-miterlimit="1.45" clip-path="url(#clipPath3)" font-family="sans-serif" xml:space="preserve">payload = {f4(f1var)}</text><line x1="592" x2="775" y1="360" y2="360" fill="none" clip-path="url(#clipPath3)"/><path fill="none" stroke-linecap="butt" stroke-miterlimit="1.45" d="M723 15.5625 L1272 15.5625 L1272 30.5625 L1287 30.5625 L1287 166.5625 L723 166.5625 Z" clip-path="url(#clipPath2)"/><path fill="none" fill-rule="evenodd" stroke-linecap="butt" stroke-miterlimit="1.45" d="M1272 15.5625 L1272 30.5625 L1287 30.5625 Z" clip-path="url(#clipPath2)"/></g><g stroke-linecap="butt" stroke-miterlimit="1.45" font-family="'Source Code Pro'" font-size="13" shape-rendering="geometricPrecision" text-rendering="geometricPrecision"><text x="729" y="54.831" stroke="none" clip-path="url(#clipPath2)" transform="matrix(1,0,0,1,-358,0)" xml:space="preserve">f4 &lt;- function(f4var) { .fastr.rcallertrace(); parent.frame(f4var) }</text><text x="729" y="71.172" stroke="none" clip-path="url(#clipPath2)" transform="matrix(1,0,0,1,-358,0)" xml:space="preserve">f3 &lt;- function(f3var) f3var; # promise to f4(f1var)</text><text x="729" y="87.513" stroke="none" clip-path="url(#clipPath2)" transform="matrix(1,0,0,1,-358,0)" xml:space="preserve">f2 &lt;- function(f2var) f2var; # promise to f3(f4(f1var))</text><text x="729" y="103.855" stroke="none" clip-path="url(#clipPath2)" transform="matrix(1,0,0,1,-358,0)" xml:space="preserve">f1 &lt;- function(f1var) f2(f3(f4(f1var)));</text><text x="729" y="136.536" stroke="none" clip-path="url(#clipPath2)" transform="matrix(1,0,0,1,-358,0)" xml:space="preserve">f1(1)</text></g><g fill="#CFC" stroke="#CFC" shape-rendering="geometricPrecision" text-rendering="geometricPrecision" transform="matrix(1,0,0,1,-358,0)"><rect width="183" height="103" x="592" y="479" stroke="none" clip-path="url(#clipPath2)"/><rect width="1" height="105" x="591" y="478" fill="#fff" stroke="none" clip-path="url(#clipPath2)"/><rect width="183" height="1" x="592" y="478" fill="#fff" stroke="none" clip-path="url(#clipPath2)"/><rect width="184" height="1" x="592" y="582" fill="#8EB28E" stroke="none" clip-path="url(#clipPath2)"/><rect width="1" height="104" x="775" y="478" fill="#8EB28E" stroke="none" clip-path="url(#clipPath2)"/></g><g stroke-linecap="butt" stroke-miterlimit="1.45" font-family="sans-serif" font-size="13" font-weight="bold" shape-rendering="geometricPrecision" text-rendering="geometricPrecision"><text x="630.999" y="495.067" stroke="none" clip-path="url(#clipPath4)" transform="matrix(1,0,0,1,-358,0)" xml:space="preserve">RCaller(@4bd)</text></g><g shape-rendering="geometricPrecision" text-rendering="geometricPrecision" transform="matrix(1,0,0,1,-358,0)"><line x1="592" x2="775" y1="503" y2="503" fill="none" clip-path="url(#clipPath4)"/><text x="596" y="519.271" stroke="none" stroke-linecap="butt" stroke-miterlimit="1.45" clip-path="url(#clipPath4)" font-family="sans-serif" xml:space="preserve">depth = 3</text><text x="596" y="533.24" stroke="none" stroke-linecap="butt" stroke-miterlimit="1.45" clip-path="url(#clipPath4)" font-family="sans-serif" xml:space="preserve">isPromise = true</text><text x="596" y="547.209" stroke="none" stroke-linecap="butt" stroke-miterlimit="1.45" clip-path="url(#clipPath4)" font-family="sans-serif" xml:space="preserve">promise = &lt;f4(f1var)&gt;</text><line x1="592" x2="775" y1="555" y2="555" fill="none" clip-path="url(#clipPath4)"/><rect width="183" height="103" x="592" y="705" fill="#CFC" stroke="none" clip-path="url(#clipPath2)"/><rect width="1" height="105" x="591" y="704" fill="#fff" stroke="none" clip-path="url(#clipPath2)"/><rect width="183" height="1" x="592" y="704" fill="#fff" stroke="none" clip-path="url(#clipPath2)"/><rect width="184" height="1" x="592" y="808" fill="#8EB28E" stroke="none" clip-path="url(#clipPath2)"/><rect width="1" height="104" x="775" y="704" fill="#8EB28E" stroke="none" clip-path="url(#clipPath2)"/></g><g stroke-linecap="butt" stroke-miterlimit="1.45" font-family="sans-serif" font-size="13" font-weight="bold" shape-rendering="geometricPrecision" text-rendering="geometricPrecision"><text x="631.259" y="721.067" stroke="none" clip-path="url(#clipPath5)" transform="matrix(1,0,0,1,-358,0)" xml:space="preserve">RCaller(@664)</text></g><g shape-rendering="geometricPrecision" text-rendering="geometricPrecision" transform="matrix(1,0,0,1,-358,0)"><line x1="592" x2="775" y1="729" y2="729" fill="none" clip-path="url(#clipPath5)"/><text x="596" y="745.271" stroke="none" stroke-linecap="butt" stroke-miterlimit="1.45" clip-path="url(#clipPath5)" font-family="sans-serif" xml:space="preserve">depth = 2</text><text x="596" y="759.24" stroke="none" stroke-linecap="butt" stroke-miterlimit="1.45" clip-path="url(#clipPath5)" font-family="sans-serif" xml:space="preserve">isPromise = true</text><text x="596" y="773.209" stroke="none" stroke-linecap="butt" stroke-miterlimit="1.45" clip-path="url(#clipPath5)" font-family="sans-serif" xml:space="preserve">promise = &lt;f3(f4(f1var))&gt;</text><line x1="592" x2="775" y1="781" y2="781" fill="none" clip-path="url(#clipPath5)"/><rect width="183" height="103" x="913" y="479" fill="#FC0" stroke="none" clip-path="url(#clipPath2)"/><rect width="1" height="105" x="912" y="478" fill="#ff0" stroke="none" clip-path="url(#clipPath2)"/><rect width="183" height="1" x="913" y="478" fill="#ff0" stroke="none" clip-path="url(#clipPath2)"/><rect width="184" height="1" x="913" y="582" fill="#B28E00" stroke="none" clip-path="url(#clipPath2)"/><rect width="1" height="104" x="1096" y="478" fill="#B28E00" stroke="none" clip-path="url(#clipPath2)"/></g><g stroke-linecap="butt" stroke-miterlimit="1.45" font-family="sans-serif" font-size="13" font-weight="bold" shape-rendering="geometricPrecision" text-rendering="geometricPrecision"><text x="952.629" y="495.067" stroke="none" clip-path="url(#clipPath6)" transform="matrix(1,0,0,1,-358,0)" xml:space="preserve">RCaller(@19b)</text></g><g shape-rendering="geometricPrecision" text-rendering="geometricPrecision" transform="matrix(1,0,0,1,-358,0)"><line x1="913" x2="1096" y1="503" y2="503" fill="none" clip-path="url(#clipPath6)"/><text x="917.5" y="519.271" stroke="none" stroke-linecap="butt" stroke-miterlimit="1.45" clip-path="url(#clipPath6)" font-family="sans-serif" xml:space="preserve">depth = 3</text><text x="917.5" y="533.24" stroke="none" stroke-linecap="butt" stroke-miterlimit="1.45" clip-path="url(#clipPath6)" font-family="sans-serif" xml:space="preserve">isPromise = false</text><text x="917.5" y="547.209" stroke="none" stroke-linecap="butt" stroke-miterlimit="1.45" clip-path="url(#clipPath6)" font-family="sans-serif" xml:space="preserve">payload = {f3(f4(f1var))}</text><line x1="913" x2="1096" y1="555" y2="555" fill="none" clip-path="url(#clipPath6)"/><rect width="183" height="103" x="592" y="951" fill="#FC0" stroke="none" clip-path="url(#clipPath2)"/><rect width="1" height="105" x="591" y="950" fill="#ff0" stroke="none" clip-path="url(#clipPath2)"/><rect width="183" height="1" x="592" y="950" fill="#ff0" stroke="none" clip-path="url(#clipPath2)"/><rect width="184" height="1" x="592" y="1054" fill="#B28E00" stroke="none" clip-path="url(#clipPath2)"/><rect width="1" height="104" x="775" y="950" fill="#B28E00" stroke="none" clip-path="url(#clipPath2)"/></g><g stroke-linecap="butt" stroke-miterlimit="1.45" font-family="sans-serif" font-size="13" font-weight="bold" shape-rendering="geometricPrecision" text-rendering="geometricPrecision"><text x="631.259" y="967.067" stroke="none" clip-path="url(#clipPath7)" transform="matrix(1,0,0,1,-358,0)" xml:space="preserve">RCaller(@103)</text></g><g shape-rendering="geometricPrecision" text-rendering="geometricPrecision" transform="matrix(1,0,0,1,-358,0)"><line x1="592" x2="775" y1="975" y2="975" fill="none" clip-path="url(#clipPath7)"/><text x="596" y="991.271" stroke="none" stroke-linecap="butt" stroke-miterlimit="1.45" clip-path="url(#clipPath7)" font-family="sans-serif" xml:space="preserve">depth = 1</text><text x="596" y="1005.24" stroke="none" stroke-linecap="butt" stroke-miterlimit="1.45" clip-path="url(#clipPath7)" font-family="sans-serif" xml:space="preserve">isPromise = false</text><text x="596" y="1019.209" stroke="none" stroke-linecap="butt" stroke-miterlimit="1.45" clip-path="url(#clipPath7)" font-family="sans-serif" xml:space="preserve">payload = {f1(1)}</text><line x1="592" x2="775" y1="1027" y2="1027" fill="none" clip-path="url(#clipPath7)"/><rect width="183" height="103" x="901" y="705" fill="#FC0" stroke="none" clip-path="url(#clipPath2)"/><rect width="1" height="105" x="900" y="704" fill="#ff0" stroke="none" clip-path="url(#clipPath2)"/><rect width="183" height="1" x="901" y="704" fill="#ff0" stroke="none" clip-path="url(#clipPath2)"/><rect width="184" height="1" x="901" y="808" fill="#B28E00" stroke="none" clip-path="url(#clipPath2)"/><rect width="1" height="104" x="1084" y="704" fill="#B28E00" stroke="none" clip-path="url(#clipPath2)"/></g><g stroke-linecap="butt" stroke-miterlimit="1.45" font-family="sans-serif" font-size="13" font-weight="bold" shape-rendering="geometricPrecision" text-rendering="geometricPrecision"><text x="940.259" y="721.067" stroke="none" clip-path="url(#clipPath8)" transform="matrix(1,0,0,1,-358,0)" xml:space="preserve">RCaller(@613)</text></g><g shape-rendering="geometricPrecision" text-rendering="geometricPrecision" transform="matrix(1,0,0,1,-358,0)"><line x1="901" x2="1084" y1="729" y2="729" fill="none" clip-path="url(#clipPath8)"/><text x="905" y="745.271" stroke="none" stroke-linecap="butt" stroke-miterlimit="1.45" clip-path="url(#clipPath8)" font-family="sans-serif" xml:space="preserve">depth = 2</text><text x="905" y="759.24" stroke="none" stroke-linecap="butt" stroke-miterlimit="1.45" clip-path="url(#clipPath8)" font-family="sans-serif" xml:space="preserve">isPromise = false</text><text x="905" y="773.209" stroke="none" stroke-linecap="butt" stroke-miterlimit="1.45" clip-path="url(#clipPath8)" font-family="sans-serif" xml:space="preserve">payload = {f2(f3(f4(f1var)))}</text><line x1="901" x2="1084" y1="781" y2="781" fill="none" clip-path="url(#clipPath8)"/><rect width="131" height="36" x="618" y="1166" fill="#FC0" stroke="none" clip-path="url(#clipPath2)"/><rect width="1" height="38" x="617" y="1165" fill="#ff0" stroke="none" clip-path="url(#clipPath2)"/><rect width="131" height="1" x="618" y="1165" fill="#ff0" stroke="none" clip-path="url(#clipPath2)"/><rect width="132" height="1" x="618" y="1202" fill="#B28E00" stroke="none" clip-path="url(#clipPath2)"/><rect width="1" height="37" x="749" y="1165" fill="#B28E00" stroke="none" clip-path="url(#clipPath2)"/></g><g stroke-linecap="butt" stroke-miterlimit="1.45" font-family="sans-serif" font-size="13" font-weight="bold" shape-rendering="geometricPrecision" text-rendering="geometricPrecision"><text x="638.644" y="1182.067" stroke="none" clip-path="url(#clipPath9)" transform="matrix(1,0,0,1,-358,0)" xml:space="preserve">R_GlobalEnv</text></g><g fill="red" stroke="red" shape-rendering="geometricPrecision" text-rendering="geometricPrecision" transform="matrix(1,0,0,1,-358,0)"><rect width="195" height="48" x="901" y="197" stroke="none" clip-path="url(#clipPath2)"/><rect width="1" height="50" x="900" y="196" stroke="none" clip-path="url(#clipPath2)"/><rect width="195" height="1" x="901" y="196" stroke="none" clip-path="url(#clipPath2)"/><rect width="196" height="1" x="901" y="245" fill="#B20000" stroke="none" clip-path="url(#clipPath2)"/><rect width="1" height="49" x="1096" y="196" fill="#B20000" stroke="none" clip-path="url(#clipPath2)"/></g><g stroke-linecap="butt" stroke-miterlimit="1.45" font-family="sans-serif" font-size="13" font-weight="bold" shape-rendering="geometricPrecision" text-rendering="geometricPrecision"><text x="921.029" y="213.629" stroke="none" clip-path="url(#clipPath10)" transform="matrix(1,0,0,1,-358,0)" xml:space="preserve">current Truffle frame</text></g><g fill="#FC0" stroke="#FC0" shape-rendering="geometricPrecision" text-rendering="geometricPrecision"><path stroke="none" d="M373.5625 977.5 L491.5625 977.5 L491.5625 992.5 L506.5625 992.5 L506.5625 1027.5 L373.5625 1027.5 Z" clip-path="url(#clipPath2)" transform="matrix(1,0,0,1,-358,0)"/><path fill="#fff" fill-rule="evenodd" stroke="none" d="M491.5625 977.5 L491.5625 992.5 L506.5625 992.5 Z" clip-path="url(#clipPath2)" transform="matrix(1,0,0,1,-358,0)"/></g><g stroke-linecap="butt" stroke-miterlimit="1.45" shape-rendering="geometricPrecision" text-rendering="geometricPrecision"><path fill="none" d="M373.5625 977.5 L491.5625 977.5 L491.5625 992.5 L506.5625 992.5 L506.5625 1027.5 L373.5625 1027.5 Z" clip-path="url(#clipPath2)" transform="matrix(1,0,0,1,-358,0)"/><path fill="none" fill-rule="evenodd" d="M491.5625 977.5 L491.5625 992.5 L506.5625 992.5 Z" clip-path="url(#clipPath2)" transform="matrix(1,0,0,1,-358,0)"/><text x="392.065" y="1006.654" stroke="none" clip-path="url(#clipPath2)" font-family="sans-serif" transform="matrix(1,0,0,1,-358,0)" xml:space="preserve">parent.frame(1)</text></g><g fill="#FC0" stroke="#FC0" shape-rendering="geometricPrecision" text-rendering="geometricPrecision"><path stroke="none" d="M373.5625 1159 L491.5625 1159 L491.5625 1174 L506.5625 1174 L506.5625 1209 L373.5625 1209 Z" clip-path="url(#clipPath2)" transform="matrix(1,0,0,1,-358,0)"/><path fill="#fff" fill-rule="evenodd" stroke="none" d="M491.5625 1159 L491.5625 1174 L506.5625 1174 Z" clip-path="url(#clipPath2)" transform="matrix(1,0,0,1,-358,0)"/></g><g stroke-linecap="butt" stroke-miterlimit="1.45" shape-rendering="geometricPrecision" text-rendering="geometricPrecision"><path fill="none" d="M373.5625 1159 L491.5625 1159 L491.5625 1174 L506.5625 1174 L506.5625 1209 L373.5625 1209 Z" clip-path="url(#clipPath2)" transform="matrix(1,0,0,1,-358,0)"/><path fill="none" fill-rule="evenodd" d="M491.5625 1159 L491.5625 1174 L506.5625 1174 Z" clip-path="url(#clipPath2)" transform="matrix(1,0,0,1,-358,0)"/><text x="392.065" y="1188.154" stroke="none" clip-path="url(#clipPath2)" font-family="sans-serif" transform="matrix(1,0,0,1,-358,0)" xml:space="preserve">parent.frame(2)</text></g><g fill="#FC0" stroke="#FC0" shape-rendering="geometricPrecision" text-rendering="geometricPrecision"><path stroke="none" d="M1177 977.5 L1295 977.5 L1295 992.5 L1310 992.5 L1310 1027.5 L1177 1027.5 Z" clip-path="url(#clipPath2)" transform="matrix(1,0,0,1,-358,0)"/><path fill="#fff" fill-rule="evenodd" stroke="none" d="M1295 977.5 L1295 992.5 L1310 992.5 Z" clip-path="url(#clipPath2)" transform="matrix(1,0,0,1,-358,0)"/></g><g stroke-linecap="butt" stroke-miterlimit="1.45" shape-rendering="geometricPrecision" text-rendering="geometricPrecision"><path fill="none" d="M1177 977.5 L1295 977.5 L1295 992.5 L1310 992.5 L1310 1027.5 L1177 1027.5 Z" clip-path="url(#clipPath2)" transform="matrix(1,0,0,1,-358,0)"/><path fill="none" fill-rule="evenodd" d="M1295 977.5 L1295 992.5 L1310 992.5 Z" clip-path="url(#clipPath2)" transform="matrix(1,0,0,1,-358,0)"/><text x="1205.499" y="1006.654" stroke="none" clip-path="url(#clipPath2)" font-family="sans-serif" transform="matrix(1,0,0,1,-358,0)" xml:space="preserve">sys.frame(1)</text></g><g fill="#FC0" stroke="#FC0" shape-rendering="geometricPrecision" text-rendering="geometricPrecision"><path stroke="none" d="M1177 731.5 L1295 731.5 L1295 746.5 L1310 746.5 L1310 781.5 L1177 781.5 Z" clip-path="url(#clipPath2)" transform="matrix(1,0,0,1,-358,0)"/><path fill="#fff" fill-rule="evenodd" stroke="none" d="M1295 731.5 L1295 746.5 L1310 746.5 Z" clip-path="url(#clipPath2)" transform="matrix(1,0,0,1,-358,0)"/></g><g stroke-linecap="butt" stroke-miterlimit="1.45" shape-rendering="geometricPrecision" text-rendering="geometricPrecision"><path fill="none" d="M1177 731.5 L1295 731.5 L1295 746.5 L1310 746.5 L1310 781.5 L1177 781.5 Z" clip-path="url(#clipPath2)" transform="matrix(1,0,0,1,-358,0)"/><path fill="none" fill-rule="evenodd" d="M1295 731.5 L1295 746.5 L1310 746.5 Z" clip-path="url(#clipPath2)" transform="matrix(1,0,0,1,-358,0)"/><text x="1205.499" y="760.654" stroke="none" clip-path="url(#clipPath2)" font-family="sans-serif" transform="matrix(1,0,0,1,-358,0)" xml:space="preserve">sys.frame(2)</text></g><g fill="#FC0" stroke="#FC0" shape-rendering="geometricPrecision" text-rendering="geometricPrecision"><path stroke="none" d="M1177 505.5 L1295 505.5 L1295 520.5 L1310 520.5 L1310 555.5 L1177 555.5 Z" clip-path="url(#clipPath2)" transform="matrix(1,0,0,1,-358,0)"/><path fill="#fff" fill-rule="evenodd" stroke="none" d="M1295 505.5 L1295 520.5 L1310 520.5 Z" clip-path="url(#clipPath2)" transform="matrix(1,0,0,1,-358,0)"/></g><g stroke-linecap="butt" stroke-miterlimit="1.45" shape-rendering="geometricPrecision" text-rendering="geometricPrecision"><path fill="none" d="M1177 505.5 L1295 505.5 L1295 520.5 L1310 520.5 L1310 555.5 L1177 555.5 Z" clip-path="url(#clipPath2)" transform="matrix(1,0,0,1,-358,0)"/><path fill="none" fill-rule="evenodd" d="M1295 505.5 L1295 520.5 L1310 520.5 Z" clip-path="url(#clipPath2)" transform="matrix(1,0,0,1,-358,0)"/><text x="1205.499" y="534.654" stroke="none" clip-path="url(#clipPath2)" font-family="sans-serif" transform="matrix(1,0,0,1,-358,0)" xml:space="preserve">sys.frame(3)</text></g><g fill="#FC0" stroke="#FC0" shape-rendering="geometricPrecision" text-rendering="geometricPrecision"><path stroke="none" d="M1177 311 L1295 311 L1295 326 L1310 326 L1310 361 L1177 361 Z" clip-path="url(#clipPath2)" transform="matrix(1,0,0,1,-358,0)"/><path fill="#fff" fill-rule="evenodd" stroke="none" d="M1295 311 L1295 326 L1310 326 Z" clip-path="url(#clipPath2)" transform="matrix(1,0,0,1,-358,0)"/></g><g stroke-linecap="butt" stroke-miterlimit="1.45" shape-rendering="geometricPrecision" text-rendering="geometricPrecision"><path fill="none" d="M1177 311 L1295 311 L1295 326 L1310 326 L1310 361 L1177 361 Z" clip-path="url(#clipPath2)" transform="matrix(1,0,0,1,-358,0)"/><path fill="none" fill-rule="evenodd" d="M1295 311 L1295 326 L1310 326 Z" clip-path="url(#clipPath2)" transform="matrix(1,0,0,1,-358,0)"/><text x="1205.499" y="340.154" stroke="none" clip-path="url(#clipPath2)" font-family="sans-serif" transform="matrix(1,0,0,1,-358,0)" xml:space="preserve">sys.frame(4)</text></g><g fill="#FC0" stroke="#FC0" shape-rendering="geometricPrecision" text-rendering="geometricPrecision"><path stroke="none" d="M1177 1153 L1295 1153 L1295 1168 L1310 1168 L1310 1203 L1177 1203 Z" clip-path="url(#clipPath2)" transform="matrix(1,0,0,1,-358,0)"/><path fill="#fff" fill-rule="evenodd" stroke="none" d="M1295 1153 L1295 1168 L1310 1168 Z" clip-path="url(#clipPath2)" transform="matrix(1,0,0,1,-358,0)"/></g><g stroke-linecap="butt" stroke-miterlimit="1.45" shape-rendering="geometricPrecision" text-rendering="geometricPrecision"><path fill="none" d="M1177 1153 L1295 1153 L1295 1168 L1310 1168 L1310 1203 L1177 1203 Z" clip-path="url(#clipPath2)" transform="matrix(1,0,0,1,-358,0)"/><path fill="none" fill-rule="evenodd" d="M1295 1153 L1295 1168 L1310 1168 Z" clip-path="url(#clipPath2)" transform="matrix(1,0,0,1,-358,0)"/><text x="1205.499" y="1182.154" stroke="none" clip-path="url(#clipPath2)" font-family="sans-serif" transform="matrix(1,0,0,1,-358,0)" xml:space="preserve">sys.frame(0)</text><path fill="none" stroke-dasharray="6 2" d="M683.5 388.4713 L683.5 472.9674" clip-path="url(#clipPath2)" transform="matrix(1,0,0,1,-358,0)"/><path stroke="none" stroke-dasharray="6 2" d="M683.5 476.9674 L689.5 464.9674 L683.5 476.9674 L677.5 464.9674 Z" clip-path="url(#clipPath2)" transform="matrix(1,0,0,1,-358,0)"/><path fill="none" stroke-linecap="square" stroke-miterlimit="10" d="M683.5 476.9674 L689.5 464.9674 L683.5 476.9674 L677.5 464.9674 Z" clip-path="url(#clipPath2)" transform="matrix(1,0,0,1,-358,0)"/><text x="627.716" y="437.404" stroke="none" clip-path="url(#clipPath2)" font-family="sans-serif" transform="matrix(1,0,0,1,-358,0)" xml:space="preserve">previous</text><path fill="none" stroke-dasharray="6 2" d="M683.5 582.9998 L683.5 699.0179" clip-path="url(#clipPath2)" transform="matrix(1,0,0,1,-358,0)"/><path stroke="none" stroke-dasharray="6 2" d="M683.5 703.0179 L689.5 691.0179 L683.5 703.0179 L677.5 691.0179 Z" clip-path="url(#clipPath2)" transform="matrix(1,0,0,1,-358,0)"/><path fill="none" stroke-linecap="square" stroke-miterlimit="10" d="M683.5 703.0179 L689.5 691.0179 L683.5 703.0179 L677.5 691.0179 Z" clip-path="url(#clipPath2)" transform="matrix(1,0,0,1,-358,0)"/><text x="629.641" y="647.654" stroke="none" clip-path="url(#clipPath2)" font-family="sans-serif" transform="matrix(1,0,0,1,-358,0)" xml:space="preserve">payload</text><path fill="none" stroke-dasharray="6 2" d="M776.0019 530.5 L907.5007 530.5" clip-path="url(#clipPath2)" transform="matrix(1,0,0,1,-358,0)"/><path stroke="none" stroke-dasharray="6 2" d="M911.5007 530.5 L899.5007 524.5 L911.5007 530.5 L899.5007 536.5 Z" clip-path="url(#clipPath2)" transform="matrix(1,0,0,1,-358,0)"/><path fill="none" stroke-linecap="square" stroke-miterlimit="10" d="M911.5007 530.5 L899.5007 524.5 L911.5007 530.5 L899.5007 536.5 Z" clip-path="url(#clipPath2)" transform="matrix(1,0,0,1,-358,0)"/><text x="818.466" y="564.654" stroke="none" clip-path="url(#clipPath2)" font-family="sans-serif" transform="matrix(1,0,0,1,-358,0)" xml:space="preserve">previous</text><path fill="none" stroke-dasharray="6 2" d="M930.3156 582.9998 L762.2799 701.1213" clip-path="url(#clipPath2)" transform="matrix(1,0,0,1,-358,0)"/><path stroke="none" stroke-dasharray="6 2" d="M759.0076 703.4216 L772.2751 701.4291 L759.0076 703.4216 L765.3741 691.612 Z" clip-path="url(#clipPath2)" transform="matrix(1,0,0,1,-358,0)"/><path fill="none" stroke-linecap="square" stroke-miterlimit="10" d="M759.0076 703.4216 L772.2751 701.4291 L759.0076 703.4216 L765.3741 691.612 Z" clip-path="url(#clipPath2)" transform="matrix(1,0,0,1,-358,0)"/><text x="784.54" y="634.832" stroke="none" clip-path="url(#clipPath2)" font-family="sans-serif" transform="matrix(1,0,0,1,-358,0)" xml:space="preserve">previous</text><path fill="none" stroke-dasharray="6 2" d="M683.5 809.0212 L683.5 945.0208" clip-path="url(#clipPath2)" transform="matrix(1,0,0,1,-358,0)"/><path stroke="none" stroke-dasharray="6 2" d="M683.5 949.0208 L689.5 937.0208 L683.5 949.0208 L677.5 937.0208 Z" clip-path="url(#clipPath2)" transform="matrix(1,0,0,1,-358,0)"/><path fill="none" stroke-linecap="square" stroke-miterlimit="10" d="M683.5 949.0208 L689.5 937.0208 L683.5 949.0208 L677.5 937.0208 Z" clip-path="url(#clipPath2)" transform="matrix(1,0,0,1,-358,0)"/><text x="629.641" y="883.654" stroke="none" clip-path="url(#clipPath2)" font-family="sans-serif" transform="matrix(1,0,0,1,-358,0)" xml:space="preserve">payload</text><path fill="none" stroke-dasharray="6 2" d="M776.0265 756.5 L894.9861 756.5" clip-path="url(#clipPath2)" transform="matrix(1,0,0,1,-358,0)"/><path stroke="none" stroke-dasharray="6 2" d="M898.9861 756.5 L886.9861 750.5 L898.9861 756.5 L886.9861 762.5 Z" clip-path="url(#clipPath2)" transform="matrix(1,0,0,1,-358,0)"/><path fill="none" stroke-linecap="square" stroke-miterlimit="10" d="M898.9861 756.5 L886.9861 750.5 L898.9861 756.5 L886.9861 762.5 Z" clip-path="url(#clipPath2)" transform="matrix(1,0,0,1,-358,0)"/><text x="812.216" y="790.654" stroke="none" clip-path="url(#clipPath2)" font-family="sans-serif" transform="matrix(1,0,0,1,-358,0)" xml:space="preserve">previous</text><path fill="none" stroke-dasharray="6 2" d="M926.5282 809.0212 L753.3604 946.8829" clip-path="url(#clipPath2)" transform="matrix(1,0,0,1,-358,0)"/><path stroke="none" stroke-dasharray="6 2" d="M750.231 949.3743 L763.3563 946.5943 L750.231 949.3743 L755.8821 937.2061 Z" clip-path="url(#clipPath2)" transform="matrix(1,0,0,1,-358,0)"/><path fill="none" stroke-linecap="square" stroke-miterlimit="10" d="M750.231 949.3743 L763.3563 946.5943 L750.231 949.3743 L755.8821 937.2061 Z" clip-path="url(#clipPath2)" transform="matrix(1,0,0,1,-358,0)"/><text x="773.204" y="876.366" stroke="none" clip-path="url(#clipPath2)" font-family="sans-serif" transform="matrix(1,0,0,1,-358,0)" xml:space="preserve">previous</text><path fill="none" stroke-dasharray="6 2" d="M683.5 1055.0092 L683.5 1160.0104" clip-path="url(#clipPath2)" transform="matrix(1,0,0,1,-358,0)"/><path stroke="none" stroke-dasharray="6 2" d="M683.5 1164.0104 L689.5 1152.0104 L683.5 1164.0104 L677.5 1152.0104 Z" clip-path="url(#clipPath2)" transform="matrix(1,0,0,1,-358,0)"/><path fill="none" stroke-linecap="square" stroke-miterlimit="10" d="M683.5 1164.0104 L689.5 1152.0104 L683.5 1164.0104 L677.5 1152.0104 Z" clip-path="url(#clipPath2)" transform="matrix(1,0,0,1,-358,0)"/><text x="627.716" y="1114.154" stroke="none" clip-path="url(#clipPath2)" font-family="sans-serif" transform="matrix(1,0,0,1,-358,0)" xml:space="preserve">previous</text><path fill="none" d="M782.5537 300.0429 L929.8667 246.5675" clip-path="url(#clipPath2)" transform="matrix(1,0,0,1,-358,0)"/><path stroke="none" d="M775.9738 302.4315 L780.8476 295.343 L789.1335 297.6544 L784.2598 304.7428 Z" clip-path="url(#clipPath2)" transform="matrix(1,0,0,1,-358,0)"/><text x="803.352" y="251.388" stroke="none" clip-path="url(#clipPath2)" font-family="sans-serif" transform="matrix(1,0,0,1,-358,0)" xml:space="preserve">INDEX_CALL</text><path fill="none" d="M506.5383 1002.5 L591.0012 1002.5" clip-path="url(#clipPath2)" transform="matrix(1,0,0,1,-358,0)"/><path fill="none" d="M506.5383 1184 L617.0098 1184" clip-path="url(#clipPath2)" transform="matrix(1,0,0,1,-358,0)"/><path fill="none" d="M776.0244 1002.5 L1176.9908 1002.5" clip-path="url(#clipPath2)" transform="matrix(1,0,0,1,-358,0)"/><path fill="none" d="M1085.0011 756.5 L1176.9816 756.5" clip-path="url(#clipPath2)" transform="matrix(1,0,0,1,-358,0)"/><path fill="none" d="M1097.4944 530.5 L1177.0204 530.5" clip-path="url(#clipPath2)" transform="matrix(1,0,0,1,-358,0)"/><path fill="none" d="M776.0244 336 L1176.9908 336" clip-path="url(#clipPath2)" transform="matrix(1,0,0,1,-358,0)"/><path fill="none" d="M749.9795 1183.2877 L1177.0205 1178.7123" clip-path="url(#clipPath2)" transform="matrix(1,0,0,1,-358,0)"/></g></g></svg>