<svg xmlns="http://www.w3.org/2000/svg" width="1019" height="1317" fill="#000" fill-opacity="1" stroke="#000" stroke-dasharray="none" stroke-dashoffset="0" stroke-linecap="square" stroke-linejoin="miter" stroke-miterlimit="10" stroke-opacity="1" stroke-width="1" color-interpolation="auto" color-rendering="auto" font-family="'Dialog'" font-size="12" font-style="normal" font-weight="normal" image-rendering="auto" shape-rendering="auto" text-rendering="auto"><g><defs id="defs1"><clipPath id="clipPath1" clipPathUnits="userSpaceOnUse"><path d="M0 0 L1019 0 L1019 1317 L0 1317 L0 0 Z"/></clipPath><clipPath id="clipPath2" clipPathUnits="userSpaceOnUse"><path d="M376 -335 L1395 -335 L1395 982 L376 982 L376 -335 Z"/></clipPath><clipPath id="clipPath3" clipPathUnits="userSpaceOnUse"><path d="M809 186 L809 236 L1006 236 L1006 186 Z"/></clipPath><clipPath id="clipPath4" clipPathUnits="userSpaceOnUse"><path d="M617 329 L617 434 L828 434 L828 329 Z"/></clipPath><clipPath id="clipPath5" clipPathUnits="userSpaceOnUse"><path d="M604 527 L604 632 L842 632 L842 527 Z"/></clipPath><clipPath id="clipPath6" clipPathUnits="userSpaceOnUse"><path d="M617 731 L617 836 L828 836 L828 731 Z"/></clipPath><clipPath id="clipPath7" clipPathUnits="userSpaceOnUse"><path d="M964 527 L964 632 L1175 632 L1175 527 Z"/></clipPath><clipPath id="clipPath8" clipPathUnits="userSpaceOnUse"><path d="M656 929 L656 967 L789 967 L789 929 Z"/></clipPath><clipPath id="clipPath9" clipPathUnits="userSpaceOnUse"><path d="M964 726 L964 831 L1175 831 L1175 726 Z"/></clipPath></defs><g fill="#fff" stroke="#fff" shape-rendering="geometricPrecision" text-rendering="geometricPrecision" transform="translate(-376,335)"><rect width="1019" height="1317" x="376" y="-335" stroke="none" clip-path="url(#clipPath2)"/></g><g fill="red" stroke="red" shape-rendering="geometricPrecision" text-rendering="geometricPrecision" transform="matrix(1,0,0,1,-376,335)"><rect width="195" height="48" x="810" y="187" stroke="none" clip-path="url(#clipPath2)"/><rect width="1" height="50" x="809" y="186" stroke="none" clip-path="url(#clipPath2)"/><rect width="195" height="1" x="810" y="186" stroke="none" clip-path="url(#clipPath2)"/><rect width="196" height="1" x="810" y="235" fill="#B20000" stroke="none" clip-path="url(#clipPath2)"/><rect width="1" height="49" x="1005" y="186" fill="#B20000" stroke="none" clip-path="url(#clipPath2)"/></g><g stroke-linecap="butt" stroke-miterlimit="1.45" font-family="sans-serif" font-size="13" font-weight="bold" shape-rendering="geometricPrecision" text-rendering="geometricPrecision"><text x="830.529" y="203.067" stroke="none" clip-path="url(#clipPath3)" transform="matrix(1,0,0,1,-376,335)" xml:space="preserve">current Truffle frame</text></g><g fill="#FC0" stroke="#FC0" shape-rendering="geometricPrecision" text-rendering="geometricPrecision" transform="matrix(1,0,0,1,-376,335)"><rect width="209" height="103" x="618" y="330" stroke="none" clip-path="url(#clipPath2)"/><rect width="1" height="105" x="617" y="329" fill="#ff0" stroke="none" clip-path="url(#clipPath2)"/><rect width="209" height="1" x="618" y="329" fill="#ff0" stroke="none" clip-path="url(#clipPath2)"/><rect width="210" height="1" x="618" y="433" fill="#B28E00" stroke="none" clip-path="url(#clipPath2)"/><rect width="1" height="104" x="827" y="329" fill="#B28E00" stroke="none" clip-path="url(#clipPath2)"/></g><g stroke-linecap="butt" stroke-miterlimit="1.45" font-family="sans-serif" font-size="13" font-weight="bold" shape-rendering="geometricPrecision" text-rendering="geometricPrecision"><text x="670.895" y="346.067" stroke="none" clip-path="url(#clipPath4)" transform="matrix(1,0,0,1,-376,335)" xml:space="preserve">RCaller(@5a7)</text></g><g shape-rendering="geometricPrecision" text-rendering="geometricPrecision" transform="matrix(1,0,0,1,-376,335)"><line x1="618" x2="827" y1="354" y2="354" fill="none" clip-path="url(#clipPath4)"/><text x="622.25" y="370.272" stroke="none" stroke-linecap="butt" stroke-miterlimit="1.45" clip-path="url(#clipPath4)" font-family="sans-serif" xml:space="preserve">depth = 3</text><text x="622.25" y="384.24" stroke="none" stroke-linecap="butt" stroke-miterlimit="1.45" clip-path="url(#clipPath4)" font-family="sans-serif" xml:space="preserve">isPromise = false</text><text x="622.25" y="398.209" stroke="none" stroke-linecap="butt" stroke-miterlimit="1.45" clip-path="url(#clipPath4)" font-family="sans-serif" xml:space="preserve">payload = {after_pkgB_loaded()}</text><line x1="618" x2="827" y1="406" y2="406" fill="none" clip-path="url(#clipPath4)"/><rect width="236" height="103" x="605" y="528" fill="#CFC" stroke="none" clip-path="url(#clipPath2)"/><rect width="1" height="105" x="604" y="527" fill="#fff" stroke="none" clip-path="url(#clipPath2)"/><rect width="236" height="1" x="605" y="527" fill="#fff" stroke="none" clip-path="url(#clipPath2)"/><rect width="237" height="1" x="605" y="631" fill="#8EB28E" stroke="none" clip-path="url(#clipPath2)"/><rect width="1" height="104" x="841" y="527" fill="#8EB28E" stroke="none" clip-path="url(#clipPath2)"/></g><g stroke-linecap="butt" stroke-miterlimit="1.45" font-family="sans-serif" font-size="13" font-weight="bold" shape-rendering="geometricPrecision" text-rendering="geometricPrecision"><text x="670.759" y="544.067" stroke="none" clip-path="url(#clipPath5)" transform="matrix(1,0,0,1,-376,335)" xml:space="preserve">RCaller(@135)</text></g><g shape-rendering="geometricPrecision" text-rendering="geometricPrecision" transform="matrix(1,0,0,1,-376,335)"><line x1="605" x2="841" y1="552" y2="552" fill="none" clip-path="url(#clipPath5)"/><text x="609" y="568.271" stroke="none" stroke-linecap="butt" stroke-miterlimit="1.45" clip-path="url(#clipPath5)" font-family="sans-serif" xml:space="preserve">depth = 2</text><text x="609" y="582.24" stroke="none" stroke-linecap="butt" stroke-miterlimit="1.45" clip-path="url(#clipPath5)" font-family="sans-serif" xml:space="preserve">isPromise = true</text><text x="609" y="596.209" stroke="none" stroke-linecap="butt" stroke-miterlimit="1.45" clip-path="url(#clipPath5)" font-family="sans-serif" xml:space="preserve">promise = &lt;{after_pkgB_loaded()}&gt;</text><line x1="605" x2="841" y1="604" y2="604" fill="none" clip-path="url(#clipPath5)"/><rect width="209" height="103" x="618" y="732" fill="#F60" stroke="none" clip-path="url(#clipPath2)"/><rect width="1" height="105" x="617" y="731" fill="#FF9100" stroke="none" clip-path="url(#clipPath2)"/><rect width="209" height="1" x="618" y="731" fill="#FF9100" stroke="none" clip-path="url(#clipPath2)"/><rect width="210" height="1" x="618" y="835" fill="#B24700" stroke="none" clip-path="url(#clipPath2)"/><rect width="1" height="104" x="827" y="731" fill="#B24700" stroke="none" clip-path="url(#clipPath2)"/></g><g stroke-linecap="butt" stroke-miterlimit="1.45" font-family="sans-serif" font-size="13" font-weight="bold" shape-rendering="geometricPrecision" text-rendering="geometricPrecision"><text x="670.759" y="748.067" stroke="none" clip-path="url(#clipPath6)" transform="matrix(1,0,0,1,-376,335)" xml:space="preserve">RCaller(@178)</text></g><g shape-rendering="geometricPrecision" text-rendering="geometricPrecision" transform="matrix(1,0,0,1,-376,335)"><line x1="618" x2="827" y1="756" y2="756" fill="none" clip-path="url(#clipPath6)"/><text x="622.25" y="772.271" stroke="none" stroke-linecap="butt" stroke-miterlimit="1.45" clip-path="url(#clipPath6)" font-family="sans-serif" xml:space="preserve">depth = 1</text><text x="622.25" y="786.24" stroke="none" stroke-linecap="butt" stroke-miterlimit="1.45" clip-path="url(#clipPath6)" font-family="sans-serif" xml:space="preserve">isPromise = false</text><text x="622.25" y="800.209" stroke="none" stroke-linecap="butt" stroke-miterlimit="1.45" clip-path="url(#clipPath6)" font-family="sans-serif" xml:space="preserve">payload = {onLoad()}</text><line x1="618" x2="827" y1="808" y2="808" fill="none" clip-path="url(#clipPath6)"/><rect width="209" height="103" x="965" y="528" fill="#FC0" stroke="none" clip-path="url(#clipPath2)"/><rect width="1" height="105" x="964" y="527" fill="#ff0" stroke="none" clip-path="url(#clipPath2)"/><rect width="209" height="1" x="965" y="527" fill="#ff0" stroke="none" clip-path="url(#clipPath2)"/><rect width="210" height="1" x="965" y="631" fill="#B28E00" stroke="none" clip-path="url(#clipPath2)"/><rect width="1" height="104" x="1174" y="527" fill="#B28E00" stroke="none" clip-path="url(#clipPath2)"/></g><g stroke-linecap="butt" stroke-miterlimit="1.45" font-family="sans-serif" font-size="13" font-weight="bold" shape-rendering="geometricPrecision" text-rendering="geometricPrecision"><text x="1017.509" y="544.067" stroke="none" clip-path="url(#clipPath7)" transform="matrix(1,0,0,1,-376,335)" xml:space="preserve">RCaller(@525)</text></g><g shape-rendering="geometricPrecision" text-rendering="geometricPrecision" transform="matrix(1,0,0,1,-376,335)"><line x1="965" x2="1174" y1="552" y2="552" fill="none" clip-path="url(#clipPath7)"/><text x="969" y="568.271" stroke="none" stroke-linecap="butt" stroke-miterlimit="1.45" clip-path="url(#clipPath7)" font-family="sans-serif" xml:space="preserve">depth = 2</text><text x="969" y="582.24" stroke="none" stroke-linecap="butt" stroke-miterlimit="1.45" clip-path="url(#clipPath7)" font-family="sans-serif" xml:space="preserve">isPromise = false</text><text x="969" y="596.209" stroke="none" stroke-linecap="butt" stroke-miterlimit="1.45" clip-path="url(#clipPath7)" font-family="sans-serif" xml:space="preserve">payload = {saved_hook()}</text><line x1="965" x2="1174" y1="604" y2="604" fill="none" clip-path="url(#clipPath7)"/><rect width="131" height="36" x="657" y="930" fill="#FC0" stroke="none" clip-path="url(#clipPath2)"/><rect width="1" height="38" x="656" y="929" fill="#ff0" stroke="none" clip-path="url(#clipPath2)"/><rect width="131" height="1" x="657" y="929" fill="#ff0" stroke="none" clip-path="url(#clipPath2)"/><rect width="132" height="1" x="657" y="966" fill="#B28E00" stroke="none" clip-path="url(#clipPath2)"/><rect width="1" height="37" x="788" y="929" fill="#B28E00" stroke="none" clip-path="url(#clipPath2)"/></g><g stroke-linecap="butt" stroke-miterlimit="1.45" font-family="sans-serif" font-size="13" font-weight="bold" shape-rendering="geometricPrecision" text-rendering="geometricPrecision"><text x="678.144" y="946.067" stroke="none" clip-path="url(#clipPath8)" transform="matrix(1,0,0,1,-376,335)" xml:space="preserve">R_GlobalEnv</text></g><g fill="#FC0" stroke="#FC0" shape-rendering="geometricPrecision" text-rendering="geometricPrecision" transform="matrix(1,0,0,1,-376,335)"><rect width="209" height="103" x="965" y="727" stroke="none" clip-path="url(#clipPath2)"/><rect width="1" height="105" x="964" y="726" fill="#ff0" stroke="none" clip-path="url(#clipPath2)"/><rect width="209" height="1" x="965" y="726" fill="#ff0" stroke="none" clip-path="url(#clipPath2)"/><rect width="210" height="1" x="965" y="830" fill="#B28E00" stroke="none" clip-path="url(#clipPath2)"/><rect width="1" height="104" x="1174" y="726" fill="#B28E00" stroke="none" clip-path="url(#clipPath2)"/></g><g stroke-linecap="butt" stroke-miterlimit="1.45" font-family="sans-serif" font-size="13" font-weight="bold" shape-rendering="geometricPrecision" text-rendering="geometricPrecision"><text x="1017.623" y="743.067" stroke="none" clip-path="url(#clipPath9)" transform="matrix(1,0,0,1,-376,335)" xml:space="preserve">RCaller(@e56)</text></g><g shape-rendering="geometricPrecision" text-rendering="geometricPrecision" transform="matrix(1,0,0,1,-376,335)"><line x1="965" x2="1174" y1="751" y2="751" fill="none" clip-path="url(#clipPath9)"/><text x="969" y="767.271" stroke="none" stroke-linecap="butt" stroke-miterlimit="1.45" clip-path="url(#clipPath9)" font-family="sans-serif" xml:space="preserve">depth = 1</text><text x="969" y="781.24" stroke="none" stroke-linecap="butt" stroke-miterlimit="1.45" clip-path="url(#clipPath9)" font-family="sans-serif" xml:space="preserve">isPromise = false</text><text x="969" y="795.209" stroke="none" stroke-linecap="butt" stroke-miterlimit="1.45" clip-path="url(#clipPath9)" font-family="sans-serif" xml:space="preserve">payload = {load_pkgB()}</text><line x1="965" x2="1174" y1="803" y2="803" fill="none" clip-path="url(#clipPath9)"/><path fill="#F60" stroke="none" d="M418 662 L559 662 L559 677 L574 677 L574 724 L418 724 Z" clip-path="url(#clipPath2)"/><path fill="#fff" fill-rule="evenodd" stroke="none" d="M559 662 L559 677 L574 677 Z" clip-path="url(#clipPath2)"/><path fill="none" stroke-linecap="butt" stroke-miterlimit="1.45" d="M418 662 L559 662 L559 677 L574 677 L574 724 L418 724 Z" clip-path="url(#clipPath2)"/><path fill="none" fill-rule="evenodd" stroke-linecap="butt" stroke-miterlimit="1.45" d="M559 662 L559 677 L574 677 Z" clip-path="url(#clipPath2)"/></g><g stroke-linecap="butt" stroke-miterlimit="1.45" font-family="sans-serif" font-weight="bold" shape-rendering="geometricPrecision" text-rendering="geometricPrecision"><text x="425.213" y="697.154" stroke="none" clip-path="url(#clipPath2)" transform="matrix(1,0,0,1,-376,335)" xml:space="preserve">Not in Truffle frames</text></g><g fill="#FC0" stroke="#FC0" shape-rendering="geometricPrecision" text-rendering="geometricPrecision"><path stroke="none" d="M1261 929 L1365 929 L1365 944 L1380 944 L1380 967 L1261 967 Z" clip-path="url(#clipPath2)" transform="matrix(1,0,0,1,-376,335)"/><path fill="#fff" fill-rule="evenodd" stroke="none" d="M1365 929 L1365 944 L1380 944 Z" clip-path="url(#clipPath2)" transform="matrix(1,0,0,1,-376,335)"/></g><g stroke-linecap="butt" stroke-miterlimit="1.45" shape-rendering="geometricPrecision" text-rendering="geometricPrecision"><path fill="none" d="M1261 929 L1365 929 L1365 944 L1380 944 L1380 967 L1261 967 Z" clip-path="url(#clipPath2)" transform="matrix(1,0,0,1,-376,335)"/><path fill="none" fill-rule="evenodd" d="M1365 929 L1365 944 L1380 944 Z" clip-path="url(#clipPath2)" transform="matrix(1,0,0,1,-376,335)"/><text x="1282.499" y="952.154" stroke="none" clip-path="url(#clipPath2)" font-family="sans-serif" transform="matrix(1,0,0,1,-376,335)" xml:space="preserve">sys.frame(0)</text></g><g fill="#FC0" stroke="#FC0" shape-rendering="geometricPrecision" text-rendering="geometricPrecision"><path stroke="none" d="M1261 759.5 L1365 759.5 L1365 774.5 L1380 774.5 L1380 797.5 L1261 797.5 Z" clip-path="url(#clipPath2)" transform="matrix(1,0,0,1,-376,335)"/><path fill="#fff" fill-rule="evenodd" stroke="none" d="M1365 759.5 L1365 774.5 L1380 774.5 Z" clip-path="url(#clipPath2)" transform="matrix(1,0,0,1,-376,335)"/></g><g stroke-linecap="butt" stroke-miterlimit="1.45" shape-rendering="geometricPrecision" text-rendering="geometricPrecision"><path fill="none" d="M1261 759.5 L1365 759.5 L1365 774.5 L1380 774.5 L1380 797.5 L1261 797.5 Z" clip-path="url(#clipPath2)" transform="matrix(1,0,0,1,-376,335)"/><path fill="none" fill-rule="evenodd" d="M1365 759.5 L1365 774.5 L1380 774.5 Z" clip-path="url(#clipPath2)" transform="matrix(1,0,0,1,-376,335)"/><text x="1282.499" y="782.654" stroke="none" clip-path="url(#clipPath2)" font-family="sans-serif" transform="matrix(1,0,0,1,-376,335)" xml:space="preserve">sys.frame(1)</text></g><g fill="#FC0" stroke="#FC0" shape-rendering="geometricPrecision" text-rendering="geometricPrecision"><path stroke="none" d="M1261 560.5 L1365 560.5 L1365 575.5 L1380 575.5 L1380 598.5 L1261 598.5 Z" clip-path="url(#clipPath2)" transform="matrix(1,0,0,1,-376,335)"/><path fill="#fff" fill-rule="evenodd" stroke="none" d="M1365 560.5 L1365 575.5 L1380 575.5 Z" clip-path="url(#clipPath2)" transform="matrix(1,0,0,1,-376,335)"/></g><g stroke-linecap="butt" stroke-miterlimit="1.45" shape-rendering="geometricPrecision" text-rendering="geometricPrecision"><path fill="none" d="M1261 560.5 L1365 560.5 L1365 575.5 L1380 575.5 L1380 598.5 L1261 598.5 Z" clip-path="url(#clipPath2)" transform="matrix(1,0,0,1,-376,335)"/><path fill="none" fill-rule="evenodd" d="M1365 560.5 L1365 575.5 L1380 575.5 Z" clip-path="url(#clipPath2)" transform="matrix(1,0,0,1,-376,335)"/><text x="1282.499" y="583.654" stroke="none" clip-path="url(#clipPath2)" font-family="sans-serif" transform="matrix(1,0,0,1,-376,335)" xml:space="preserve">sys.frame(2)</text></g><g fill="#FC0" stroke="#FC0" shape-rendering="geometricPrecision" text-rendering="geometricPrecision"><path stroke="none" d="M1261 362.5 L1365 362.5 L1365 377.5 L1380 377.5 L1380 400.5 L1261 400.5 Z" clip-path="url(#clipPath2)" transform="matrix(1,0,0,1,-376,335)"/><path fill="#fff" fill-rule="evenodd" stroke="none" d="M1365 362.5 L1365 377.5 L1380 377.5 Z" clip-path="url(#clipPath2)" transform="matrix(1,0,0,1,-376,335)"/></g><g stroke-linecap="butt" stroke-miterlimit="1.45" shape-rendering="geometricPrecision" text-rendering="geometricPrecision"><path fill="none" d="M1261 362.5 L1365 362.5 L1365 377.5 L1380 377.5 L1380 400.5 L1261 400.5 Z" clip-path="url(#clipPath2)" transform="matrix(1,0,0,1,-376,335)"/><path fill="none" fill-rule="evenodd" d="M1365 362.5 L1365 377.5 L1380 377.5 Z" clip-path="url(#clipPath2)" transform="matrix(1,0,0,1,-376,335)"/><text x="1282.499" y="385.654" stroke="none" clip-path="url(#clipPath2)" font-family="sans-serif" transform="matrix(1,0,0,1,-376,335)" xml:space="preserve">sys.frame(3)</text></g><g fill="#FC0" stroke="#FC0" shape-rendering="geometricPrecision" text-rendering="geometricPrecision"><path stroke="none" d="M391 764.5 L495 764.5 L495 779.5 L510 779.5 L510 802.5 L391 802.5 Z" clip-path="url(#clipPath2)" transform="matrix(1,0,0,1,-376,335)"/><path fill="#fff" fill-rule="evenodd" stroke="none" d="M495 764.5 L495 779.5 L510 779.5 Z" clip-path="url(#clipPath2)" transform="matrix(1,0,0,1,-376,335)"/></g><g stroke-linecap="butt" stroke-miterlimit="1.45" shape-rendering="geometricPrecision" text-rendering="geometricPrecision"><path fill="none" d="M391 764.5 L495 764.5 L495 779.5 L510 779.5 L510 802.5 L391 802.5 Z" clip-path="url(#clipPath2)" transform="matrix(1,0,0,1,-376,335)"/><path fill="none" fill-rule="evenodd" d="M495 764.5 L495 779.5 L510 779.5 Z" clip-path="url(#clipPath2)" transform="matrix(1,0,0,1,-376,335)"/><text x="402.503" y="787.654" stroke="none" clip-path="url(#clipPath2)" font-family="sans-serif" transform="matrix(1,0,0,1,-376,335)" xml:space="preserve">parent.frame(1)</text></g><g fill="#FC0" stroke="#FC0" shape-rendering="geometricPrecision" text-rendering="geometricPrecision"><path stroke="none" d="M391 929 L495 929 L495 944 L510 944 L510 967 L391 967 Z" clip-path="url(#clipPath2)" transform="matrix(1,0,0,1,-376,335)"/><path fill="#fff" fill-rule="evenodd" stroke="none" d="M495 929 L495 944 L510 944 Z" clip-path="url(#clipPath2)" transform="matrix(1,0,0,1,-376,335)"/></g><g stroke-linecap="butt" stroke-miterlimit="1.45" shape-rendering="geometricPrecision" text-rendering="geometricPrecision"><path fill="none" d="M391 929 L495 929 L495 944 L510 944 L510 967 L391 967 Z" clip-path="url(#clipPath2)" transform="matrix(1,0,0,1,-376,335)"/><path fill="none" fill-rule="evenodd" d="M495 929 L495 944 L510 944 Z" clip-path="url(#clipPath2)" transform="matrix(1,0,0,1,-376,335)"/><text x="402.503" y="952.154" stroke="none" clip-path="url(#clipPath2)" font-family="sans-serif" transform="matrix(1,0,0,1,-376,335)" xml:space="preserve">parent.frame(2)</text><path fill="none" d="M690 -318 L1245 -318 L1245 -303 L1260 -303 L1260 156 L690 156 Z" clip-path="url(#clipPath2)" transform="matrix(1,0,0,1,-376,335)"/><path fill="none" fill-rule="evenodd" d="M1245 -318 L1245 -303 L1260 -303 Z" clip-path="url(#clipPath2)" transform="matrix(1,0,0,1,-376,335)"/><text x="696" y="-305.153" stroke="none" clip-path="url(#clipPath2)" font-family="'Source Code Pro'" font-size="13" transform="matrix(1,0,0,1,-376,335)" xml:space="preserve">saved_hook &lt;- NULL</text><text x="696" y="-272.471" stroke="none" clip-path="url(#clipPath2)" font-family="'Source Code Pro'" font-size="13" transform="matrix(1,0,0,1,-376,335)" xml:space="preserve">onLoad &lt;- function() {</text><text x="696" y="-256.13" stroke="none" clip-path="url(#clipPath2)" font-family="'Source Code Pro'" font-size="13" transform="matrix(1,0,0,1,-376,335)" xml:space="preserve">onLoad_loc_var &lt;- 42</text><text x="696" y="-239.789" stroke="none" clip-path="url(#clipPath2)" font-family="'Source Code Pro'" font-size="13" transform="matrix(1,0,0,1,-376,335)" xml:space="preserve">on_pkgB_load({</text><text x="696" y="-223.448" stroke="none" clip-path="url(#clipPath2)" font-family="'Source Code Pro'" font-size="13" transform="matrix(1,0,0,1,-376,335)" xml:space="preserve">after_pkgB_loaded()</text><text x="696" y="-207.107" stroke="none" clip-path="url(#clipPath2)" font-family="'Source Code Pro'" font-size="13" transform="matrix(1,0,0,1,-376,335)" xml:space="preserve">})</text><text x="696" y="-190.766" stroke="none" clip-path="url(#clipPath2)" font-family="'Source Code Pro'" font-size="13" transform="matrix(1,0,0,1,-376,335)" xml:space="preserve">}</text><text x="696" y="-158.084" stroke="none" clip-path="url(#clipPath2)" font-family="'Source Code Pro'" font-size="13" transform="matrix(1,0,0,1,-376,335)" xml:space="preserve">on_pkgB_load &lt;- function(expr) {</text><text x="696" y="-141.743" stroke="none" clip-path="url(#clipPath2)" font-family="'Source Code Pro'" font-size="13" transform="matrix(1,0,0,1,-376,335)" xml:space="preserve">save_hook(function() expr)</text><text x="696" y="-125.401" stroke="none" clip-path="url(#clipPath2)" font-family="'Source Code Pro'" font-size="13" transform="matrix(1,0,0,1,-376,335)" xml:space="preserve">}</text><text x="696" y="-92.719" stroke="none" clip-path="url(#clipPath2)" font-family="'Source Code Pro'" font-size="13" transform="matrix(1,0,0,1,-376,335)" xml:space="preserve">save_hook &lt;- function(func) {</text><text x="696" y="-76.379" stroke="none" clip-path="url(#clipPath2)" font-family="'Source Code Pro'" font-size="13" transform="matrix(1,0,0,1,-376,335)" xml:space="preserve">saved_hook &lt;&lt;- func</text><text x="696" y="-60.038" stroke="none" clip-path="url(#clipPath2)" font-family="'Source Code Pro'" font-size="13" transform="matrix(1,0,0,1,-376,335)" xml:space="preserve">}</text><text x="696" y="-27.355" stroke="none" clip-path="url(#clipPath2)" font-family="'Source Code Pro'" font-size="13" transform="matrix(1,0,0,1,-376,335)" xml:space="preserve">load_pkgB &lt;- function() {</text><text x="696" y="-11.014" stroke="none" clip-path="url(#clipPath2)" font-family="'Source Code Pro'" font-size="13" transform="matrix(1,0,0,1,-376,335)" xml:space="preserve">saved_hook()</text><text x="696" y="5.327" stroke="none" clip-path="url(#clipPath2)" font-family="'Source Code Pro'" font-size="13" transform="matrix(1,0,0,1,-376,335)" xml:space="preserve">}</text><text x="696" y="38.009" stroke="none" clip-path="url(#clipPath2)" font-family="'Source Code Pro'" font-size="13" transform="matrix(1,0,0,1,-376,335)" xml:space="preserve">after_pkgB_loaded &lt;- function() {</text><text x="696" y="54.35" stroke="none" clip-path="url(#clipPath2)" font-family="'Source Code Pro'" font-size="13" transform="matrix(1,0,0,1,-376,335)" xml:space="preserve">.fastr.rcallertrace()</text><text x="696" y="70.691" stroke="none" clip-path="url(#clipPath2)" font-family="'Source Code Pro'" font-size="13" transform="matrix(1,0,0,1,-376,335)" xml:space="preserve">parent.frame()</text><text x="696" y="87.032" stroke="none" clip-path="url(#clipPath2)" font-family="'Source Code Pro'" font-size="13" transform="matrix(1,0,0,1,-376,335)" xml:space="preserve">}</text><text x="696" y="119.714" stroke="none" clip-path="url(#clipPath2)" font-family="'Source Code Pro'" font-size="13" transform="matrix(1,0,0,1,-376,335)" xml:space="preserve">onLoad()</text><text x="696" y="136.055" stroke="none" clip-path="url(#clipPath2)" font-family="'Source Code Pro'" font-size="13" transform="matrix(1,0,0,1,-376,335)" xml:space="preserve">pf &lt;- load_pkgB()</text><text x="696" y="152.396" stroke="none" clip-path="url(#clipPath2)" font-family="'Source Code Pro'" font-size="13" transform="matrix(1,0,0,1,-376,335)" xml:space="preserve">&quot;onLoad_loc_var&quot; %in% ls(pf)</text><path fill="none" d="M785.2045 324.2484 L881.1147 235.9747" clip-path="url(#clipPath2)" transform="matrix(1,0,0,1,-376,335)"/><path stroke="none" d="M780.054 328.9889 L781.8184 320.5695 L790.355 319.5079 L788.5905 327.9273 Z" clip-path="url(#clipPath2)" transform="matrix(1,0,0,1,-376,335)"/><text x="833.711" y="290.699" stroke="none" clip-path="url(#clipPath2)" font-family="sans-serif" transform="matrix(1,0,0,1,-376,335)" xml:space="preserve">INDEX_CALL</text><path fill="none" stroke-dasharray="6 2" d="M723 434.0454 L723 521.9787" clip-path="url(#clipPath2)" transform="matrix(1,0,0,1,-376,335)"/><path stroke="none" stroke-dasharray="6 2" d="M723 525.9787 L729 513.9787 L723 525.9787 L717 513.9787 Z" clip-path="url(#clipPath2)" transform="matrix(1,0,0,1,-376,335)"/><path fill="none" stroke-linecap="square" stroke-miterlimit="10" d="M723 525.9787 L729 513.9787 L723 525.9787 L717 513.9787 Z" clip-path="url(#clipPath2)" transform="matrix(1,0,0,1,-376,335)"/><text x="667.216" y="484.654" stroke="none" clip-path="url(#clipPath2)" font-family="sans-serif" transform="matrix(1,0,0,1,-376,335)" xml:space="preserve">previous</text><path fill="none" stroke-dasharray="6 2" d="M723 632.0439 L723 726.0302" clip-path="url(#clipPath2)" transform="matrix(1,0,0,1,-376,335)"/><path stroke="none" stroke-dasharray="6 2" d="M723 730.0302 L729 718.0302 L723 730.0302 L717 718.0302 Z" clip-path="url(#clipPath2)" transform="matrix(1,0,0,1,-376,335)"/><path fill="none" stroke-linecap="square" stroke-miterlimit="10" d="M723 730.0302 L729 718.0302 L723 730.0302 L717 718.0302 Z" clip-path="url(#clipPath2)" transform="matrix(1,0,0,1,-376,335)"/><text x="669.141" y="685.654" stroke="none" clip-path="url(#clipPath2)" font-family="sans-serif" transform="matrix(1,0,0,1,-376,335)" xml:space="preserve">payload</text><path fill="none" stroke-dasharray="6 2" d="M841.9836 579.5 L959.0132 579.5" clip-path="url(#clipPath2)" transform="matrix(1,0,0,1,-376,335)"/><path stroke="none" stroke-dasharray="6 2" d="M963.0132 579.5 L951.0132 573.5 L963.0132 579.5 L951.0132 585.5 Z" clip-path="url(#clipPath2)" transform="matrix(1,0,0,1,-376,335)"/><path fill="none" stroke-linecap="square" stroke-miterlimit="10" d="M963.0132 579.5 L951.0132 573.5 L963.0132 579.5 L951.0132 585.5 Z" clip-path="url(#clipPath2)" transform="matrix(1,0,0,1,-376,335)"/><text x="877.216" y="613.654" stroke="none" clip-path="url(#clipPath2)" font-family="sans-serif" transform="matrix(1,0,0,1,-376,335)" xml:space="preserve">previous</text><path fill="none" stroke-dasharray="6 2" d="M723 835.9906 L723 923.9945" clip-path="url(#clipPath2)" transform="matrix(1,0,0,1,-376,335)"/><path stroke="none" stroke-dasharray="6 2" d="M723 927.9945 L729 915.9945 L723 927.9945 L717 915.9945 Z" clip-path="url(#clipPath2)" transform="matrix(1,0,0,1,-376,335)"/><path fill="none" stroke-linecap="square" stroke-miterlimit="10" d="M723 927.9945 L729 915.9945 L723 927.9945 L717 915.9945 Z" clip-path="url(#clipPath2)" transform="matrix(1,0,0,1,-376,335)"/><text x="667.216" y="886.654" stroke="none" clip-path="url(#clipPath2)" font-family="sans-serif" transform="matrix(1,0,0,1,-376,335)" xml:space="preserve">previous</text><path fill="none" stroke-dasharray="6 2" d="M1069.75 632.0193 L1069.75 720.9658" clip-path="url(#clipPath2)" transform="matrix(1,0,0,1,-376,335)"/><path stroke="none" stroke-dasharray="6 2" d="M1069.75 724.9658 L1075.75 712.9658 L1069.75 724.9658 L1063.75 712.9658 Z" clip-path="url(#clipPath2)" transform="matrix(1,0,0,1,-376,335)"/><path fill="none" stroke-linecap="square" stroke-miterlimit="10" d="M1069.75 724.9658 L1075.75 712.9658 L1069.75 724.9658 L1063.75 712.9658 Z" clip-path="url(#clipPath2)" transform="matrix(1,0,0,1,-376,335)"/><text x="1013.966" y="683.154" stroke="none" clip-path="url(#clipPath2)" font-family="sans-serif" transform="matrix(1,0,0,1,-376,335)" xml:space="preserve">previous</text><path fill="none" stroke-dasharray="6 2" d="M963.9727 830.2066 L766.35 926.8094" clip-path="url(#clipPath2)" transform="matrix(1,0,0,1,-376,335)"/><path stroke="none" stroke-dasharray="6 2" d="M762.7564 928.5661 L776.1722 928.6866 L762.7564 928.5661 L770.9023 917.9057 Z" clip-path="url(#clipPath2)" transform="matrix(1,0,0,1,-376,335)"/><path fill="none" stroke-linecap="square" stroke-miterlimit="10" d="M762.7564 928.5661 L776.1722 928.6866 L762.7564 928.5661 L770.9023 917.9057 Z" clip-path="url(#clipPath2)" transform="matrix(1,0,0,1,-376,335)"/><text x="814.171" y="861.591" stroke="none" clip-path="url(#clipPath2)" font-family="sans-serif" transform="matrix(1,0,0,1,-376,335)" xml:space="preserve">previous</text><path fill="none" d="M573.7819 724.0099 L617.2431 741.337" clip-path="url(#clipPath2)" transform="matrix(1,0,0,1,-376,335)"/><path fill="none" d="M789.4821 948 L1261.0262 948" clip-path="url(#clipPath2)" transform="matrix(1,0,0,1,-376,335)"/><path fill="none" d="M1175.5045 778.5 L1260.9938 778.5" clip-path="url(#clipPath2)" transform="matrix(1,0,0,1,-376,335)"/><path fill="none" d="M1175.5045 579.5 L1260.9938 579.5" clip-path="url(#clipPath2)" transform="matrix(1,0,0,1,-376,335)"/><path fill="none" d="M828.7222 381.5 L1260.9788 381.5" clip-path="url(#clipPath2)" transform="matrix(1,0,0,1,-376,335)"/><path fill="none" d="M510.0096 783.5 L617.2588 783.5" clip-path="url(#clipPath2)" transform="matrix(1,0,0,1,-376,335)"/><path fill="none" d="M510.0096 948 L656.5185 948" clip-path="url(#clipPath2)" transform="matrix(1,0,0,1,-376,335)"/></g></g></svg>